<?xml version="1.0" encoding="UTF-8"?><!DOCTYPE svg PUBLIC "-//W3C//DTD SVG 1.1//EN" "http://www.w3.org/Graphics/SVG/1.1/DTD/svg11.dtd"><svg xmlns="http://www.w3.org/2000/svg"><symbol id="configure" viewBox="0 0 21.589 21.589"><path d="M18.622 8.37l-.545-1.294s1.268-2.86 1.156-2.97l-1.68-1.64c-.115-.113-2.977 1.193-2.977 1.193l-1.32-.534S12.09.226 11.93.226H9.56c-.164 0-1.243 2.906-1.243 2.906L7 3.667s-2.923-1.242-3.035-1.13L2.29 4.176c-.117.113 1.217 2.916 1.217 2.916l-.545 1.293S0 9.526 0 9.68v2.323c0 .162 2.97 1.22 2.97 1.22l.544 1.29s-1.268 2.86-1.157 2.97l1.678 1.642c.114.11 2.977-1.195 2.977-1.195l1.32.535S9.5 21.363 9.66 21.363h2.37c.163 0 1.243-2.906 1.243-2.906l1.322-.535s2.916 1.242 3.03 1.133l1.677-1.64c.117-.116-1.22-2.917-1.22-2.917l.544-1.293s2.963-1.143 2.963-1.3v-2.32c0-.16-2.968-1.214-2.968-1.214zm-4.366 2.424c0 1.867-1.553 3.387-3.46 3.387s-3.462-1.52-3.462-3.386S8.89 7.41 10.794 7.41c1.91 0 3.462 1.517 3.462 3.384z"/></symbol><symbol id="correct" viewBox="0 0 442.533 442.533"><path d="M434.54 98.5l-38.83-38.83c-5.323-5.327-11.798-7.992-19.41-7.992-7.617 0-14.092 2.665-19.416 7.993L169.59 247.25l-83.94-84.225c-5.33-5.33-11.8-7.992-19.41-7.992-7.617 0-14.088 2.663-19.418 7.993l-38.828 38.83C2.664 207.18 0 213.652 0 221.268c0 7.608 2.664 14.087 7.994 19.415l103.35 103.35 38.832 38.827c5.327 5.332 11.8 7.994 19.414 7.994 7.61 0 14.084-2.67 19.414-7.994l38.83-38.828L434.54 137.33c5.324-5.33 7.993-11.802 7.993-19.417.004-7.61-2.67-14.084-7.994-19.414z"/></symbol><symbol id="home" viewBox="0 0 547.596 547.596"><path d="M540.76 254.788L294.506 38.216c-11.475-10.098-30.064-10.098-41.386 0L6.943 254.788c-11.475 10.098-8.415 18.284 6.885 18.284h75.964v221.773c0 12.087 9.945 22.108 22.108 22.108h92.947V371.067c0-12.087 9.945-22.108 22.11-22.108h93.864c12.24 0 22.11 9.79 22.11 22.107v145.886h92.946c12.24 0 22.108-9.945 22.108-22.108v-221.85h75.965c15.07 0 18.13-8.11 6.81-18.207z"/></symbol><symbol id="incorrect" viewBox="0 0 339.177 339.177"><path d="M247.244 169.59l83.938-83.938c5.332-5.327 7.994-11.798 7.994-19.414 0-7.614-2.67-14.084-7.994-19.414l-38.827-38.83c-5.33-5.33-11.8-7.994-19.41-7.994-7.618 0-14.086 2.665-19.418 7.993L169.59 91.93 85.65 7.994C80.326 2.665 73.855 0 66.238 0c-7.61 0-14.083 2.665-19.414 7.993l-38.83 38.83C2.668 52.15 0 58.624 0 66.24c0 7.616 2.664 14.084 7.994 19.414L91.93 169.59 7.995 253.528C2.667 258.858 0 265.328 0 272.945c0 7.61 2.664 14.082 7.994 19.41l38.83 38.828c5.33 5.332 11.803 7.994 19.414 7.994 7.616 0 14.084-2.67 19.414-7.994l83.94-83.938 83.943 83.938c5.328 5.332 11.793 7.994 19.417 7.994 7.61 0 14.082-2.67 19.41-7.994l38.82-38.828c5.333-5.324 7.995-11.8 7.995-19.41 0-7.618-2.662-14.086-7.994-19.417l-83.94-83.938z"/></symbol><symbol id="key" viewBox="0 0 453.705 453.705"><path d="M205.017 341.995l-32.166-32.16 110.692-110.702c40.217 21.676 91.214 15.992 125.21-17.947 41.405-41.462 41.405-108.687 0-150.09-41.46-41.46-108.69-41.46-150.15 0-33.937 33.94-39.593 84.998-17.93 125.156L22.75 374.216c-11.804 11.79-11.804 31.097 0 42.88 11.784 11.79 31.096 11.79 42.88 0l32.16 32.166c5.928 5.923 15.522 5.923 21.444 0l21.443-21.44c5.933-5.922 5.933-15.518 0-21.44l-32.164-32.165 21.44-21.506 32.177 32.227c5.923 5.923 15.52 5.923 21.443 0l21.44-21.44c5.923-5.985 5.923-15.515 0-21.502zm96.47-268.015c17.77-17.768 46.62-17.768 64.388 0 17.702 17.71 17.702 46.612 0 64.324-17.768 17.71-46.62 17.71-64.387 0-17.712-17.71-17.712-46.614 0-64.324z"/></symbol><symbol id="list" viewBox="0 0 44.776 44.776"><path d="M39.776 12.766H5c-2.76 0-5-2.24-5-5s2.24-5 5-5h34.776c2.76 0 5 2.24 5 5s-2.24 5-5 5zM39.776 27.388H5c-2.76 0-5-2.24-5-5 0-2.762 2.24-5 5-5h34.776c2.76 0 5 2.238 5 5 0 2.76-2.24 5-5 5zM39.776 42.01H5c-2.76 0-5-2.24-5-5 0-2.762 2.24-5 5-5h34.776c2.76 0 5 2.238 5 5 0 2.76-2.24 5-5 5z"/></symbol><symbol id="login" viewBox="0 0 95.667 95.667"><path d="M39.173 72.344L78.62 49.567c.62-.356 1-1.018 1-1.73s-.38-1.376-1-1.733l-39.447-22.78c-.62-.357-1.38-.357-2 0-.62.357-1 1.018-1 1.732V35.66H2.12c-1.103 0-2 .897-2 2v20.345c0 1.104.897 2 2 2h34.054V70.61c0 .715.38 1.374 1 1.73.31.18.655.27 1 .27s.69-.09 1-.266zM80.775 0h-40.75c-1.103 0-2 .896-2 2v6c0 1.104.897 2 2 2h40.75c2.632 0 4.77 2.14 4.77 4.77v66.126c0 2.63-2.14 4.77-4.77 4.77h-40.75c-1.103 0-2 .897-2 2v6c0 1.105.897 2 2 2h40.75c8.146 0 14.77-6.626 14.77-14.77V14.772C95.546 6.627 88.92 0 80.776 0z"/></symbol><symbol id="logout" viewBox="0 0 447.674 447.674"><path d="M182.725 379.15c-.572-1.52-.77-2.815-.575-3.862.193-1.04-.472-1.902-1.997-2.566-1.525-.664-2.286-1.19-2.286-1.567 0-.38-1.093-.667-3.284-.855-2.19-.19-3.283-.288-3.283-.288H82.224c-12.562 0-23.317-4.47-32.264-13.42-8.945-8.947-13.417-19.7-13.417-32.26V123.336c0-12.562 4.47-23.313 13.417-32.26 8.947-8.946 19.702-13.42 32.264-13.42h91.36c2.476 0 4.422-.615 5.853-1.855 1.425-1.237 2.375-3.094 2.853-5.568.476-2.474.763-4.708.86-6.707.093-1.997.047-4.52-.145-7.566-.19-3.045-.284-4.948-.284-5.713 0-2.474-.904-4.61-2.71-6.423-1.81-1.804-3.95-2.71-6.424-2.71H82.224c-22.648 0-42.016 8.043-58.1 24.126C8.04 81.323 0 100.688 0 123.338v200.994c0 22.648 8.042 42.018 24.123 58.095 16.085 16.09 35.453 24.133 58.1 24.133h91.366c2.474 0 4.42-.622 5.85-1.854 1.426-1.24 2.376-3.094 2.854-5.57.476-2.472.763-4.717.86-6.708.093-2 .047-4.518-.145-7.563-.192-3.048-.285-4.95-.285-5.714zM442.25 210.99L286.934 55.67c-3.614-3.612-7.898-5.424-12.847-5.424-4.95 0-9.233 1.812-12.85 5.424-3.618 3.617-5.425 7.904-5.425 12.85v82.226H127.907c-4.952 0-9.233 1.812-12.85 5.424-3.617 3.617-5.424 7.9-5.424 12.85v109.636c0 4.948 1.807 9.232 5.424 12.847 3.62 3.61 7.9 5.427 12.85 5.427h127.907v82.225c0 4.945 1.807 9.233 5.424 12.847 3.617 3.617 7.9 5.428 12.85 5.428 4.95 0 9.233-1.81 12.848-5.428L442.25 236.69c3.616-3.62 5.424-7.898 5.424-12.848 0-4.948-1.808-9.236-5.425-12.853z"/></symbol><symbol id="next" viewBox="0 0 444.819 444.819"><path d="M352.025 196.712L165.885 10.848C159.028 3.615 150.468 0 140.186 0s-18.842 3.62-25.697 10.848L92.792 32.264c-7.044 7.043-10.566 15.604-10.566 25.692 0 9.897 3.52 18.56 10.566 25.98L231.545 222.41 92.785 361.168c-7.04 7.043-10.563 15.604-10.563 25.693 0 9.897 3.52 18.563 10.564 25.98l21.7 21.414c7.043 7.043 15.612 10.564 25.697 10.564 10.09 0 18.656-3.52 25.697-10.564L352.025 248.39c7.046-7.423 10.57-16.084 10.57-25.98.002-10.09-3.524-18.655-10.57-25.698z"/></symbol><symbol id="play" viewBox="0 0 510 510"><path d="M204 369.75L357 255 204 140.25v229.5zM255 0C114.75 0 0 114.75 0 255s114.75 255 255 255 255-114.75 255-255S395.25 0 255 0zm0 459c-112.2 0-204-91.8-204-204S142.8 51 255 51s204 91.8 204 204-91.8 204-204 204z"/></symbol><symbol id="previous" viewBox="0 0 444.531 444.531"><path d="M213.13 222.41L351.88 83.652c7.05-7.043 10.567-15.657 10.567-25.84 0-10.184-3.518-18.794-10.567-25.836L330.47 10.56C323.433 3.52 314.818 0 304.638 0s-18.79 3.52-25.84 10.56L92.648 196.426c-7.045 7.043-10.567 15.656-10.567 25.84s3.52 18.792 10.566 25.838l186.145 185.864c7.05 7.043 15.66 10.564 25.84 10.564s18.796-3.52 25.835-10.563l21.41-21.412c7.05-7.04 10.566-15.604 10.566-25.697 0-10.085-3.518-18.746-10.567-25.978L213.13 222.41z"/></symbol><symbol id="question" viewBox="0 0 31.357 31.357"><path d="M15.255 0C20.68 0 26.02 2.498 26.02 8.473c0 5.51-6.315 7.63-7.67 9.62-1.02 1.48-.68 3.562-3.476 3.562-1.822 0-2.712-1.482-2.712-2.838 0-5.046 7.414-6.188 7.414-10.343 0-2.287-1.522-3.643-4.066-3.643-5.424 0-3.306 5.593-7.414 5.593-1.483 0-2.756-.89-2.756-2.584C5.34 3.682 10.084 0 15.255 0zm-.21 24.406c1.903 0 3.474 1.566 3.474 3.476s-1.57 3.476-3.476 3.476c-1.907 0-3.476-1.564-3.476-3.476 0-1.91 1.57-3.476 3.476-3.476z"/></symbol><symbol id="save" viewBox="0 0 407.096 407.096"><path d="M402.115 84.008L323.088 4.98C319.898 1.793 315.574 0 311.063 0H17.005C7.613 0 0 7.614 0 17.005V390.09c0 9.393 7.613 17.006 17.005 17.006H390.09c9.393 0 17.006-7.613 17.006-17.005V96.033c0-4.51-1.79-8.835-4.98-12.024zm-101.45 79.56H67.128V38.86h233.534v124.705zM214.05 148.16h43.08c3.132 0 5.67-2.538 5.67-5.67V59.585c0-3.13-2.538-5.668-5.67-5.668h-43.08c-3.13 0-5.667 2.538-5.667 5.668v82.907c0 3.132 2.537 5.67 5.668 5.67z"/></symbol><symbol id="sound" viewBox="0 0 93.038 93.038"><path d="M46.547 75.52c0 1.64-.947 3.13-2.43 3.824-.572.27-1.186.402-1.796.402-.965 0-1.922-.332-2.695-.973l-23.098-19.14H4.225C1.892 59.635 0 57.743 0 55.41V38.575c0-2.334 1.892-4.226 4.225-4.226h12.303l23.098-19.14c1.262-1.046 3.012-1.27 4.493-.57 1.48.696 2.428 2.186 2.428 3.824V75.52zm16.237-6.6c-.103.006-.202.01-.304.01-1.116 0-2.192-.44-2.987-1.237l-.565-.567c-1.482-1.48-1.656-3.822-.408-5.504 3.164-4.266 4.834-9.323 4.834-14.628 0-5.706-1.896-11.058-5.484-15.478-1.366-1.68-1.24-4.12.29-5.65l.565-.565c.844-.843 1.975-1.303 3.2-1.23 1.19.06 2.304.62 3.06 1.545 4.977 6.09 7.606 13.484 7.606 21.38 0 7.354-2.324 14.354-6.724 20.24-.735.98-1.86 1.597-3.082 1.684zm17.468 13.056c-.764.903-1.87 1.445-3.052 1.495-.058.003-.117.005-.177.005-1.12 0-2.193-.442-2.988-1.237l-.555-.555c-1.55-1.55-1.656-4.03-.246-5.707 6.814-8.104 10.568-18.396 10.568-28.982 0-11.01-4.02-21.61-11.314-29.847-1.48-1.672-1.404-4.203.17-5.783l.554-.555c.822-.827 1.89-1.282 3.115-1.243 1.163.033 2.263.547 3.036 1.417 8.818 9.928 13.675 22.718 13.675 36.01.002 12.79-4.54 25.213-12.786 34.982z"/></symbol><symbol id="statistics" viewBox="0 0 372.465 372.465"><path d="M101.98 186.44H30.484c-5.523 0-10 4.478-10 10v166.022c0 5.523 4.477 10 10 10h71.496c5.523 0 10-4.477 10-10v-166.02c0-5.523-4.477-10-10-10zM221.98 0h-71.496c-5.523 0-10 4.477-10 10v352.465c0 5.52 4.477 10 10 10h71.496c5.523 0 10-4.48 10-10V10c0-5.523-4.476-10-10-10zM341.98 115.257h-71.496c-5.523 0-10 4.477-10 10v237.208c0 5.52 4.477 10 10 10h71.496c5.523 0 10-4.48 10-10V125.257c0-5.523-4.476-10-10-10z"/></symbol><symbol id="sync" viewBox="0 0 511.624 511.623"><path d="M9.135 200.996h392.862v54.818c0 2.475.9 4.613 2.707 6.424 1.81 1.81 3.953 2.713 6.427 2.713 2.667 0 4.857-.854 6.564-2.568l91.365-91.362c1.706-1.713 2.562-3.903 2.562-6.565 0-2.667-.856-4.858-2.57-6.567l-91.07-91.078c-2.286-1.906-4.572-2.856-6.858-2.856-2.662 0-4.853.856-6.563 2.568-1.71 1.715-2.565 3.9-2.565 6.567v54.817H9.135c-2.474 0-4.615.903-6.423 2.712S0 134.567 0 137.04v54.818c0 2.474.903 4.615 2.712 6.423s3.95 2.713 6.423 2.713zM502.49 310.637H109.632v-54.82c0-2.474-.905-4.615-2.712-6.423-1.81-1.81-3.95-2.712-6.424-2.712-2.667 0-4.854.856-6.567 2.568L2.567 340.607C.858 342.325 0 344.51 0 347.18c0 2.47.855 4.567 2.568 6.274l91.077 91.365c2.285 1.9 4.57 2.85 6.854 2.85 2.472 0 4.614-.903 6.422-2.707 1.807-1.813 2.712-3.95 2.712-6.427V383.72H502.49c2.478 0 4.613-.9 6.427-2.71 1.807-1.81 2.707-3.95 2.707-6.427v-54.816c0-2.475-.903-4.613-2.707-6.42-1.814-1.807-3.95-2.71-6.427-2.71z"/></symbol><symbol id="trash" viewBox="0 0 438.529 438.529"><path d="M417.69 75.654c-1.712-1.71-3.902-2.568-6.564-2.568h-88.224L302.917 25.41c-2.854-7.044-7.994-13.04-15.413-17.99C280.078 2.474 272.556 0 264.944 0h-91.362c-7.61 0-15.13 2.473-22.554 7.42-7.424 4.95-12.563 10.945-15.42 17.99l-19.984 47.676h-88.22c-2.667 0-4.853.86-6.567 2.568-1.71 1.713-2.568 3.903-2.568 6.567v18.275c0 2.664.854 4.854 2.567 6.564 1.714 1.71 3.904 2.567 6.567 2.567H54.81v271.8c0 15.803 4.473 29.266 13.418 40.398 8.947 11.14 19.7 16.703 32.264 16.703h237.542c12.566 0 23.32-5.756 32.265-17.268 8.944-11.52 13.414-25.174 13.414-40.97V109.626h27.41c2.663 0 4.854-.856 6.564-2.568 1.708-1.71 2.57-3.9 2.57-6.565V82.22c.002-2.663-.86-4.853-2.57-6.566zM169.3 39.678c1.332-1.712 2.95-2.762 4.854-3.14h90.504c1.903.38 3.525 1.43 4.854 3.14l13.71 33.404H155.31l13.99-33.404zM347.174 380.29c0 4.187-.664 8.043-2 11.562-1.333 3.518-2.716 6.088-4.14 7.706-1.43 1.622-2.423 2.427-2.998 2.427H100.493c-.57 0-1.565-.805-2.996-2.427-1.43-1.618-2.81-4.188-4.143-7.706-1.33-3.52-1.997-7.38-1.997-11.56V109.626h255.815V380.29zM137.04 347.172h18.27c2.668 0 4.86-.855 6.568-2.567 1.71-1.718 2.568-3.9 2.568-6.57V173.58c0-2.662-.86-4.852-2.568-6.566-1.714-1.71-3.9-2.565-6.567-2.565h-18.27c-2.667 0-4.854.854-6.567 2.564-1.71 1.714-2.568 3.904-2.568 6.567v164.455c0 2.67.854 4.853 2.568 6.57 1.713 1.71 3.9 2.567 6.567 2.567zM210.13 347.172h18.27c2.666 0 4.856-.855 6.564-2.567 1.718-1.718 2.57-3.9 2.57-6.57V173.58c0-2.662-.853-4.852-2.57-6.566-1.708-1.71-3.898-2.565-6.564-2.565h-18.27c-2.665 0-4.855.854-6.568 2.564-1.714 1.714-2.568 3.904-2.568 6.567v164.455c0 2.67.854 4.853 2.568 6.57 1.712 1.71 3.903 2.567 6.567 2.567zM283.22 347.172h18.268c2.67 0 4.86-.855 6.57-2.567 1.71-1.718 2.562-3.9 2.562-6.57V173.58c0-2.662-.852-4.852-2.562-6.566-1.71-1.71-3.9-2.565-6.57-2.565H283.22c-2.67 0-4.853.854-6.57 2.564-1.712 1.714-2.567 3.904-2.567 6.567v164.455c0 2.67.855 4.853 2.566 6.57 1.717 1.71 3.9 2.567 6.57 2.567z"/></symbol><symbol id="user" viewBox="0 0 438.529 438.529"><path d="M219.265 219.267c30.27 0 56.108-10.71 77.518-32.12 21.412-21.412 32.12-47.25 32.12-77.516 0-30.26-10.708-56.1-32.12-77.515C275.366 10.705 249.528 0 219.265 0S163.16 10.705 141.75 32.115c-21.414 21.416-32.12 47.253-32.12 77.516 0 30.268 10.706 56.105 32.12 77.516 21.416 21.41 47.25 32.12 77.515 32.12zM419.258 335.036c-.668-9.61-2.002-19.985-3.997-31.12-1.998-11.137-4.523-21.458-7.57-30.98-3.045-9.513-7.138-18.793-12.277-27.835-5.137-9.04-11.037-16.747-17.703-23.126-6.666-6.377-14.8-11.465-24.406-15.27-9.617-3.806-20.23-5.712-31.84-5.712-1.71 0-5.71 2.046-11.99 6.14-6.277 4.092-13.368 8.66-21.267 13.707-7.898 5.036-18.182 9.608-30.834 13.694-12.658 4.093-25.36 6.14-38.118 6.14-12.752 0-25.456-2.047-38.112-6.14-12.655-4.086-22.936-8.658-30.835-13.695-7.898-5.047-14.987-9.615-21.267-13.71-6.282-4.092-10.277-6.138-11.99-6.138-11.61 0-22.222 1.906-31.833 5.71-9.613 3.807-17.75 8.9-24.412 15.272-6.66 6.38-12.562 14.086-17.7 23.127-5.136 9.043-9.228 18.327-12.274 27.837-3.044 9.52-5.567 19.842-7.565 30.978-2 11.136-3.332 21.505-4 31.12-.665 9.617-.997 19.467-.997 29.555 0 22.836 6.95 40.875 20.842 54.104 13.896 13.224 32.36 19.835 55.39 19.835h249.533c23.028 0 41.49-6.612 55.388-19.836 13.902-13.23 20.846-31.265 20.846-54.104-.002-10.088-.334-19.938-1.008-29.554z"/></symbol></svg>